<svg width="48" height="48" viewBox="0 0 172 144" fill="none" xmlns="http://www.w3.org/2000/svg">
<g clip-path="url(#clip0)">
<path d="M76.865 1.81657L12.6877 28.3719C9.11885 29.8489 9.15582 34.9191 12.7471 36.3425L77.1919 61.8986C82.8541 64.1443 89.16 64.1443 94.8222 61.8986L159.268 36.3415C162.858 34.9191 162.897 29.8499 159.326 28.3729L95.1511 1.8156C89.2961 -0.607153 82.719 -0.607153 76.864 1.8156" fill="#FCB400"/>
<path d="M91.725 75.853V139.697C91.725 142.732 94.7869 144.812 97.6095 143.694L169.421 115.82C170.222 115.502 170.909 114.952 171.393 114.239C171.877 113.526 172.136 112.684 172.135 111.823V47.9802C172.135 44.9436 169.073 42.8643 166.251 43.9832L94.4396 71.857C93.6388 72.1747 92.9519 72.7255 92.4679 73.4382C91.9839 74.1509 91.7251 74.9925 91.725 75.8539" fill="#18BFFF"/>
<path d="M74.9559 79.1475L53.6439 89.4377L51.48 90.4836L6.49167 112.04C3.64086 113.416 0 111.337 0 108.169V48.2478C0 47.1017 0.587676 46.1122 1.37578 45.3678C1.6991 45.0459 2.06591 44.7708 2.46551 44.5505C3.53968 43.9055 5.07308 43.7332 6.37686 44.2489L74.5978 71.2801C78.0655 72.6558 78.3379 77.5149 74.9559 79.1485" fill="#F82B60"/>
<path d="M74.9558 79.1475L53.6438 89.4377L1.37573 45.3669C1.69911 45.0452 2.06591 44.7705 2.46546 44.5505C3.53962 43.9055 5.07303 43.7332 6.37681 44.2489L74.5978 71.2801C78.0655 72.6558 78.3379 77.5149 74.9558 79.1485" fill="black" fill-opacity="0.25"/>
</g>
<defs>
<clipPath id="clip0">
<rect width="172" height="144" fill="white"/>
</clipPath>
</defs>
</svg>
