<svg width="" height="20" viewBox="0 0 135 27" fill="none" xmlns="http://www.w3.org/2000/svg">
<path d="M8.784 26.352C7.056 26.352 5.532 25.968 4.212 25.2C2.892 24.408 1.86 23.316 1.116 21.924C0.372 20.532 0 18.912 0 17.064C0 15.192 0.36 13.548 1.08 12.132C1.824 10.716 2.856 9.612 4.176 8.82C5.52 8.028 7.068 7.632 8.82 7.632C10.548 7.632 12.036 8.028 13.284 8.82C14.532 9.588 15.492 10.62 16.164 11.916C16.86 13.212 17.208 14.64 17.208 16.2C17.208 16.44 17.208 16.704 17.208 16.992C17.208 17.256 17.196 17.556 17.172 17.892H3.744C3.864 19.548 4.404 20.808 5.364 21.672C6.324 22.512 7.452 22.932 8.748 22.932C9.876 22.932 10.764 22.704 11.412 22.248C12.084 21.768 12.576 21.12 12.888 20.304H16.74C16.308 22.008 15.408 23.448 14.04 24.624C12.672 25.776 10.92 26.352 8.784 26.352ZM8.784 10.944C7.608 10.944 6.564 11.304 5.652 12.024C4.74 12.72 4.152 13.704 3.888 14.976H13.392C13.296 13.776 12.828 12.804 11.988 12.06C11.148 11.316 10.08 10.944 8.784 10.944ZM18.2739 25.92V8.064H21.4419L21.7659 10.152H21.9459C22.2579 9.408 22.7379 8.808 23.3859 8.352C24.0339 7.872 24.8019 7.632 25.6899 7.632C26.5539 7.632 27.3099 7.848 27.9579 8.28C28.6059 8.712 29.0859 9.336 29.3979 10.152H29.5419C29.8539 9.432 30.3459 8.832 31.0179 8.352C31.6899 7.872 32.5179 7.632 33.5019 7.632C34.8219 7.632 35.8179 8.064 36.4899 8.928C37.1859 9.792 37.5339 11.004 37.5339 12.564V25.92H33.8619V13.32C33.8619 12.6 33.7059 12.036 33.3939 11.628C33.1059 11.196 32.6379 10.98 31.9899 10.98C31.3419 10.98 30.8019 11.232 30.3699 11.736C29.9619 12.24 29.7579 12.948 29.7579 13.86V25.92H26.0499V13.32C26.0499 12.6 25.9059 12.036 25.6179 11.628C25.3299 11.196 24.8619 10.98 24.2139 10.98C23.5659 10.98 23.0259 11.232 22.5939 11.736C22.1619 12.24 21.9459 12.948 21.9459 13.86V25.92H18.2739ZM46.8079 26.352C45.3199 26.352 43.9879 26.004 42.8119 25.308C41.6359 24.588 40.6999 23.532 40.0039 22.14C39.3319 20.748 38.9959 19.032 38.9959 16.992C38.9959 14.952 39.3439 13.236 40.0399 11.844C40.7359 10.452 41.6719 9.408 42.8479 8.712C44.0479 7.992 45.3799 7.632 46.8439 7.632C48.2119 7.632 49.3399 7.896 50.2279 8.424C51.1159 8.928 51.7759 9.576 52.2079 10.368V0H56.0239V25.92H52.7479L52.4239 23.292H52.2079C51.7279 24.228 51.0439 24.972 50.1559 25.524C49.2919 26.076 48.1759 26.352 46.8079 26.352ZM47.5999 22.716C48.9679 22.716 50.0959 22.236 50.9839 21.276C51.8959 20.316 52.3519 18.888 52.3519 16.992C52.3519 15.072 51.8959 13.644 50.9839 12.708C50.0959 11.748 48.9679 11.268 47.5999 11.268C46.2319 11.268 45.0919 11.748 44.1799 12.708C43.2919 13.668 42.8479 15.108 42.8479 17.028C42.8479 18.924 43.2919 20.352 44.1799 21.312C45.0919 22.248 46.2319 22.716 47.5999 22.716ZM61.1938 14.94V11.7H80.7998L73.5778 14.94H61.1938ZM73.5778 14.94L80.7998 11.7H93.1838V14.94H73.5778ZM106.742 26.352C104.39 26.352 102.518 25.8 101.126 24.696C99.7337 23.592 98.9417 22.128 98.7497 20.304H102.674C102.818 21.144 103.238 21.828 103.934 22.356C104.654 22.884 105.602 23.148 106.778 23.148C107.906 23.148 108.77 22.92 109.37 22.464C109.994 21.984 110.306 21.432 110.306 20.808C110.306 19.896 109.934 19.272 109.19 18.936C108.47 18.6 107.402 18.348 105.986 18.18C104.762 18.036 103.646 17.76 102.638 17.352C101.654 16.92 100.874 16.344 100.298 15.624C99.7217 14.88 99.4337 13.956 99.4337 12.852C99.4337 11.292 100.046 10.032 101.27 9.072C102.494 8.112 104.198 7.632 106.382 7.632C108.566 7.632 110.258 8.124 111.458 9.108C112.658 10.092 113.354 11.436 113.546 13.14H109.874C109.778 12.42 109.406 11.856 108.758 11.448C108.11 11.016 107.306 10.8 106.346 10.8C105.362 10.8 104.582 10.992 104.006 11.376C103.43 11.736 103.142 12.216 103.142 12.816C103.142 14.112 104.534 14.904 107.318 15.192C108.638 15.336 109.814 15.588 110.846 15.948C111.878 16.284 112.694 16.824 113.294 17.568C113.894 18.288 114.194 19.308 114.194 20.628C114.218 21.708 113.906 22.68 113.258 23.544C112.634 24.408 111.758 25.092 110.63 25.596C109.526 26.1 108.23 26.352 106.742 26.352ZM118.032 25.92V0H121.848V10.728C122.328 9.84 123.096 9.108 124.152 8.532C125.208 7.932 126.396 7.632 127.716 7.632C129.924 7.632 131.604 8.304 132.756 9.648C133.908 10.968 134.484 12.876 134.484 15.372V25.92H130.668V15.912C130.668 14.424 130.308 13.272 129.588 12.456C128.868 11.64 127.872 11.232 126.6 11.232C125.28 11.232 124.152 11.676 123.216 12.564C122.304 13.452 121.848 14.736 121.848 16.416V25.92H118.032Z" fill="#39291A"/>
</svg>
